<svg xmlns="http://www.w3.org/2000/svg" xmlns:xlink="http://www.w3.org/1999/xlink" version="1.1" x="0px" y="0px" viewBox="0 0 100 125" enable-background="new 0 0 100 100" xml:space="preserve"><path d="M50,12.5c2.464,0,4.469,2.005,4.469,4.469v37.006v3.023l2.678,1.404c5.109,2.681,8.284,7.918,8.284,13.668  c0,8.508-6.922,15.43-15.431,15.43s-15.431-6.922-15.431-15.43c0-5.751,3.174-10.988,8.284-13.668l2.678-1.404v-3.023V16.969  C45.531,14.505,47.536,12.5,50,12.5 M50,7.5c-5.229,0-9.469,4.239-9.469,9.469v37.006C34.019,57.39,29.569,64.206,29.569,72.07  c0,11.283,9.147,20.43,20.431,20.43c11.283,0,20.431-9.146,20.431-20.43c0-7.864-4.449-14.68-10.962-18.096V16.969  C59.469,11.739,55.23,7.5,50,7.5L50,7.5z"/><g><rect x="29.92" y="17.5" width="6.103" height="5"/><rect x="29.92" y="45" width="6.103" height="5"/><rect x="29.92" y="30.674" width="6.103" height="5"/></g><path d="M51.425,59.721L51.5,33.178c0.002-0.829-0.667-1.502-1.496-1.504c-0.001,0-0.003,0-0.004,0c-0.827,0-1.498,0.669-1.5,1.496  l-0.075,26.546c-5.809,0.73-10.305,5.677-10.305,11.683c0,6.511,5.277,11.789,11.788,11.789c6.511,0,11.788-5.278,11.788-11.789  C61.696,65.404,57.218,60.467,51.425,59.721z"/><g><path d="M63.033,50V15.512h18.476v5.562H69.67v9.104h11.033v5.426H69.67V50H63.033z"/></g><g><path d="M87.194,18.281c-2.926,0-5.306-2.38-5.306-5.306c0-2.925,2.38-5.305,5.306-5.305s5.306,2.38,5.306,5.305   C92.5,15.901,90.12,18.281,87.194,18.281z M87.194,10.67c-1.271,0-2.306,1.034-2.306,2.305c0,1.271,1.034,2.306,2.306,2.306   s2.306-1.034,2.306-2.306C89.5,11.704,88.466,10.67,87.194,10.67z"/></g><text x="0" y="115" fill="#000000" font-size="5px" font-weight="bold" font-family="'Helvetica Neue', Helvetica, Arial-Unicode, Arial, Sans-serif">Created by Round Icons</text><text x="0" y="120" fill="#000000" font-size="5px" font-weight="bold" font-family="'Helvetica Neue', Helvetica, Arial-Unicode, Arial, Sans-serif">from the Noun Project</text></svg>